<?xml version="1.0"?>
<svg xmlns="http://www.w3.org/2000/svg" id="Layer_1" enable-background="new 0 0 512 512" height="512px" viewBox="0 0 512 512" width="512px"><g><path d="m447.733 419.867v-83.533c0-8.284-6.716-15-15-15h-64.267c-8.284 0-15 6.716-15 15v81.947c4.875 1.038 9.89 1.586 14.992 1.586z" fill="#2B2B2B"/><path d="m497 449.867h-128.541c-27.07 0-52.521-10.542-71.663-29.685l-74.102-74.101c-1.6-48.903-22.421-158.808-137.512-216.366l-6.631-3.315h129.249c8.284 0 15-6.716 15-15v-64.267c0-8.284-6.716-15-15-15h-192.8c-8.284 0-15 6.716-15 15 0 0 .014 64.273.016 64.274.007 5.495 3.029 10.784 8.279 13.409l63.471 31.731c79.142 39.58 107.597 107.306 116.92 155.525l-51.97-51.97c-32.563-32.564-73.395-55.682-118.077-66.854-4.481-1.122-9.229-.114-12.869 2.729-3.642 2.842-5.77 7.204-5.77 11.823v257.067c0 8.284 6.716 15 15 15h64.267c8.284 0 15-6.716 15-15v-128.47c0-18.349 14.934-33.264 33.272-33.264 6.307 0 12.238 2.457 16.699 6.917l131.345 131.345c24.808 24.809 57.792 38.471 92.876 38.471h128.541c8.284 0 15-6.716 15-15s-6.716-14.999-15-14.999z" fill="#2B2B2B"/></g></svg>
